<svg width="120" height="20" viewBox="0 0 120 20" fill="none" xmlns="http://www.w3.org/2000/svg">
<path fill-rule="evenodd" clip-rule="evenodd" d="M115.686 19.4337V18.3646C114.578 19.3573 113.204 19.8536 111.486 19.8536C109.653 19.8536 108.088 19.1664 106.79 17.8301C105.492 16.4938 104.842 14.7757 104.842 12.6758C104.842 10.5759 105.492 8.85778 106.79 7.52148C108.088 6.18517 109.653 5.49793 111.486 5.49793C113.204 5.49793 114.617 5.99427 115.686 6.98696V0H120V19.4337H115.686ZM14.3175 11.3777C15.0048 12.1031 15.3484 13.0958 15.3484 14.3557C15.3484 15.8829 14.8521 17.1429 13.8212 18.0592C12.7903 18.9755 11.3395 19.4337 9.3923 19.4337H0V1.3363H9.35412C10.9959 1.3363 12.3322 1.79446 13.3248 2.67261C14.3175 3.58893 14.8139 4.77251 14.8139 6.26153C14.8139 7.40694 14.5084 8.28508 13.8594 8.97232C13.2103 9.65956 12.5612 10.0032 11.8358 10.0795L11.874 10.1941C12.8285 10.2704 13.6303 10.6522 14.3175 11.3777ZM8.36144 8.8196C9.0105 8.8196 9.54502 8.6287 9.965 8.2469C10.3468 7.8651 10.5759 7.40694 10.5759 6.75787C10.5759 6.18517 10.385 5.76519 10.0032 5.42157C9.62138 5.07795 9.12504 4.92523 8.55234 4.92523H4.46707V8.8196H8.36144ZM10.805 13.8212C10.805 14.4703 10.6141 14.9666 10.2323 15.3102C9.85046 15.6538 9.27776 15.8447 8.59052 15.8447H4.46707V11.874H8.66688C9.27776 11.874 9.81228 12.0649 10.1941 12.4085C10.6141 12.7521 10.805 13.2103 10.805 13.8212ZM26.497 19.4337V18.1355C25.4279 19.2809 24.0153 19.8536 22.3354 19.8536C20.7318 19.8536 19.4718 19.3191 18.5173 18.2883C17.5628 17.2574 17.0665 15.8829 17.0665 14.203V5.87973H21.3427V13.2867C21.3427 14.0885 21.5717 14.7375 21.9917 15.2339C22.4117 15.7302 22.9844 15.9593 23.6717 15.9593C24.5498 15.9593 25.237 15.6538 25.7334 15.043C26.2297 14.4321 26.4588 13.4776 26.4588 12.1794V5.87973H30.7731L30.8113 19.4337H26.497ZM32.6822 18.6319V19.4337H44.098V15.9975H38.6764L44.0598 6.68151V5.87973H32.8349V9.31594H38.0655L32.6822 18.6319ZM46.007 19.4337V18.6319L51.3522 9.31594H46.1215V5.87973H57.3465V6.68151L51.9631 15.9975H57.3847L57.4229 19.4337H46.007ZM71.664 12.9812V9.08686H63.8371V5.23067H72.3513V1.3363H59.37V19.4718H63.8371V12.9812H71.664ZM93.3885 13.783C93.6557 15.4629 94.9157 16.4174 96.7865 16.4174C98.2755 16.4174 99.7645 15.8447 100.872 14.9666L102.514 17.8301C100.986 19.1282 99.0391 19.8536 96.7865 19.8536C92.2431 19.8536 89.1505 17.1047 89.1505 12.6758C89.1505 10.5759 89.8377 8.85778 91.2122 7.52148C92.5867 6.18517 94.3048 5.49793 96.3284 5.49793C98.2755 5.49793 99.9173 6.14699 101.254 7.4833C102.59 8.8196 103.277 10.5377 103.315 12.714V13.783H93.3885ZM99.0391 11.1104H93.4648C93.6557 10.4613 94.0375 9.92682 94.5721 9.54502C95.1066 9.16322 95.6793 8.97232 96.3284 8.97232C96.9392 8.97232 97.5119 9.16322 98.0083 9.50684C98.5046 9.88864 98.8482 10.4232 99.0391 11.1104ZM77.5819 13.783C77.8492 15.4629 79.1091 16.4174 80.98 16.4174C82.469 16.4174 83.958 15.8447 85.0652 14.9666L86.707 17.8301C85.1798 19.1282 83.2326 19.8536 80.98 19.8536C76.4365 19.8536 73.3439 17.1047 73.3439 12.6758C73.3439 10.5759 74.0312 8.85778 75.4057 7.52148C76.7801 6.18517 78.4983 5.49793 80.5218 5.49793C82.469 5.49793 84.1107 6.14699 85.447 7.4833C86.7833 8.8196 87.4706 10.5377 87.5088 12.714V13.783H77.5819ZM83.2326 11.1104H77.6583C77.8492 10.4613 78.231 9.92682 78.7655 9.54502C79.3 9.16322 79.8727 8.97232 80.5218 8.97232C81.1327 8.97232 81.7054 9.16322 82.2017 9.50684C82.6981 9.88864 83.0417 10.4232 83.2326 11.1104ZM114.731 10.1559C115.38 10.8431 115.724 11.6831 115.724 12.6758C115.724 13.7066 115.38 14.5466 114.731 15.1957C114.044 15.8447 113.28 16.1884 112.402 16.1884C111.448 16.1884 110.684 15.8829 110.073 15.2339C109.462 14.5848 109.157 13.7066 109.157 12.6758C109.157 11.6449 109.462 10.805 110.073 10.1559C110.684 9.50684 111.448 9.16322 112.402 9.16322C113.28 9.16322 114.082 9.50684 114.731 10.1559Z" fill="#B3B7BC"/>
</svg>
