<svg width="138" height="26" viewBox="0 0 138 26" fill="none" xmlns="http://www.w3.org/2000/svg">
<path d="M119.743 0.898618V7.20112H136.391L128.809 0.000581339L120.642 0C120.145 0 119.743 0.402412 119.743 0.898618Z" fill="#B3B7BC"/>
<path d="M136.102 8.20898H129.801V24.8578L136.998 17.2728L137.001 9.10703C137.001 8.60966 136.602 8.20898 136.102 8.20898Z" fill="#B3B7BC"/>
<path d="M128.789 24.5609V18.2607H112.14L119.723 25.4601L127.891 25.4613C128.387 25.4613 128.789 25.0583 128.789 24.5609Z" fill="#B3B7BC"/>
<path d="M112.432 17.2559H118.732V0.605957L111.533 8.18863L111.532 16.3544C111.532 16.8512 111.934 17.2559 112.432 17.2559Z" fill="#B3B7BC"/>
<path d="M35.2227 10.7277H24.5111V3.03911L20.6097 3.03564V22.4219H24.5111V14.0935H35.2227V22.4219H39.1304V3.03911H35.2227V10.7277Z" fill="#B3B7BC"/>
<path d="M87.125 22.4173H104.241L102.073 19.0058H91.0374V14.0935H101.724V10.8076H91.0374V6.37067H102.055L104.178 3.03906H87.125V22.4173Z" fill="#B3B7BC"/>
<path d="M0 9.09167V16.3281C0 20.4825 2.64143 22.4221 6.08769 22.4221L18.3279 22.421L16.0588 18.8775H6.84387C4.88624 18.8775 4.03337 18.1699 4.03337 15.9789V9.41359C4.03337 7.29558 4.75134 6.46934 6.89598 6.46934H16.1549L18.3337 3.03467H6.10796C2.04971 3.03467 0 5.50182 0 9.09167Z" fill="#B3B7BC"/>
<path d="M65.2556 8.06218V8.99321C65.2556 12.7707 67.567 14.2118 69.8795 14.2217H77.9966C78.8397 14.2217 79.5246 14.3618 79.5246 15.7867L79.5235 17.4328C79.502 18.713 78.8634 19.006 77.9677 19.006H67.2891L65.1016 22.4175H78.219C81.3821 22.4175 83.5296 20.8438 83.5296 17.2087V15.873C83.5296 12.3584 81.5344 10.6978 78.4407 10.6978H70.6901C69.8309 10.6978 69.2322 10.4633 69.2322 9.19065V7.85025C69.2322 6.76635 69.6427 6.37089 70.6438 6.37089L80.8135 6.36684L82.939 3.02539L70.0017 3.03002C67.6579 3.03002 65.2556 4.43875 65.2556 8.06218Z" fill="#B3B7BC"/>
<path fill-rule="evenodd" clip-rule="evenodd" d="M45.6176 22.4212H41.2733L50.4651 3.03955H54.3311L63.5442 22.4212H59.1808L57.3964 18.4185H47.4079L45.6176 22.4212ZM48.8832 15.1194H55.9245L52.3926 7.06365L48.8832 15.1194Z" fill="#B3B7BC"/>
</svg>
