<svg width="90" height="90" viewBox="0 0 90 90" fill="none" xmlns="http://www.w3.org/2000/svg">
<g filter="url(#filter0_d_0_367)">
<circle cx="43" cy="41" r="25" fill="#7C4FCF"/>
</g>
<mask id="mask0_0_367" style="mask-type:alpha" maskUnits="userSpaceOnUse" x="33" y="31" width="20" height="20">
<rect x="33" y="31" width="20" height="20" fill="white"/>
</mask>
<g mask="url(#mask0_0_367)">
<path fill-rule="evenodd" clip-rule="evenodd" d="M40.2713 31.9091C40.2713 31.3636 40.6349 31 41.1804 31H44.8167C45.3622 31 45.7258 31.3636 45.7258 31.9091V50.0909C45.7258 50.6364 45.3622 51 44.8167 51H41.1804C40.6349 51 40.2713 50.6364 40.2713 50.0909V31.9091ZM48.4531 38.2727C47.9076 38.2727 47.544 38.6364 47.544 39.1818V50.0909C47.544 50.6364 47.9076 51 48.4531 51H52.0894C52.6349 51 52.9985 50.6364 52.9985 50.0909V39.1818C52.9985 38.6364 52.6349 38.2727 52.0894 38.2727H48.4531ZM33.9076 41.9091C33.3622 41.9091 32.9985 42.2727 32.9985 42.8182V50.0909C32.9985 50.6364 33.3622 51 33.9076 51H37.544C38.0894 51 38.4531 50.6364 38.4531 50.0909V42.8182C38.4531 42.2727 38.0894 41.9091 37.544 41.9091H33.9076Z" fill="white"/>
</g>
<defs>
<filter id="filter0_d_0_367" x="0" y="0" width="90" height="90" filterUnits="userSpaceOnUse" color-interpolation-filters="sRGB">
<feFlood flood-opacity="0" result="BackgroundImageFix"/>
<feColorMatrix in="SourceAlpha" type="matrix" values="0 0 0 0 0 0 0 0 0 0 0 0 0 0 0 0 0 0 127 0" result="hardAlpha"/>
<feOffset dx="2" dy="4"/>
<feGaussianBlur stdDeviation="10"/>
<feColorMatrix type="matrix" values="0 0 0 0 0.254902 0 0 0 0 0.254902 0 0 0 0 0.647059 0 0 0 0.25 0"/>
<feBlend mode="normal" in2="BackgroundImageFix" result="effect1_dropShadow_0_367"/>
<feBlend mode="normal" in="SourceGraphic" in2="effect1_dropShadow_0_367" result="shape"/>
</filter>
</defs>
</svg>
