<svg width="133" height="33" viewBox="0 0 133 33" fill="none" xmlns="http://www.w3.org/2000/svg">
<path fill-rule="evenodd" clip-rule="evenodd" d="M37.838 25.386H41.617V21.427V6.74121H37.838V6.7421V25.386ZM3.83153 22.5088C4.44703 25.0787 5.55605 26.0245 8.75354 25.3867L10.8168 16.9765C11.3397 14.8875 11.6904 13.3981 12.0266 11.2731H12.0857C12.2926 13.1529 12.5763 14.5177 12.9328 16.2322L12.9328 16.2324L12.9332 16.2339L12.9334 16.2353L12.9341 16.2385C12.9842 16.4792 13.0356 16.7269 13.0885 16.9838C13.0885 16.9838 13.9284 20.8018 14.3585 22.8071C14.7898 24.8118 15.9899 26.0752 19.1218 25.3874L24.038 6.74353H20.0688L18.3904 14.8042C18.2644 15.4597 18.1415 16.0753 18.0231 16.6688C17.7177 18.1994 17.4415 19.5836 17.214 21.1303H17.158C16.8918 19.1585 16.5584 17.5004 16.1453 15.4453L16.0474 14.9585L14.2999 6.74353H10.1643L8.29505 14.7515C8.15845 15.3792 8.02412 15.9757 7.89458 16.551L7.89455 16.5512L7.89454 16.5512C7.52191 18.206 7.1889 19.6849 6.95517 21.2236H6.89813C6.57556 19.2707 6.14593 16.8011 5.68069 14.4455C5.68069 14.4455 4.57011 8.71783 4.18045 6.74353L0.000477979 6.74407L0 6.7421L0.000386466 6.74407L0.000477979 6.74407C0.0458526 6.93035 3.30786 20.3223 3.83153 22.5088ZM92.18 24.5325C91.4179 23.7209 91.0617 22.3923 91.0617 20.496V6.74215H94.788V11.1509H98.0792V14.718H94.788V19.9802C94.788 21.6829 95.2197 22.5089 96.507 22.5089C97.1136 22.5089 97.5571 22.4328 97.9426 22.3378L97.9913 25.2964C97.4732 25.4898 96.3739 25.7021 95.2566 25.7021C93.9425 25.7021 92.8458 25.2424 92.18 24.5325ZM24.1637 12.3131L24.9074 14.8645C25.8375 14.277 27.3183 13.7908 28.7204 13.7908C31.0419 13.7848 31.4214 15.1059 31.4214 15.9531V16.1535C26.363 16.1459 23.1678 17.8995 23.1678 21.4742C23.1678 23.6567 24.7943 25.702 27.6227 25.702C29.3637 25.702 30.8198 25.0063 31.6925 23.8917H31.7781C31.7781 23.8917 32.3559 26.3124 35.5396 25.3867C35.3724 24.3792 35.318 23.305 35.318 22.0112V17.0306C35.318 13.8562 33.9652 11.0642 29.3928 11.0642L29.3928 11.0641C27.0442 11.0641 25.18 11.7248 24.1637 12.3131ZM47.8706 13.2834H47.9266C48.5709 12.2648 49.6336 11.0641 51.9984 11.0641L51.9977 11.0642C53.8374 11.0642 55.2497 12.06 55.8517 13.5695H55.9077C56.4251 12.809 57.017 12.2315 57.6782 11.825C58.4649 11.3411 59.3349 11.0642 60.4373 11.0642C62.9263 11.0642 65.1313 12.7867 65.1313 17.1373V25.3867H61.3336V17.7122C61.3336 15.5073 60.5878 14.2315 59.0337 14.2315C57.8939 14.2315 57.0659 14.9969 56.7539 15.9377C56.6459 16.2627 56.5956 16.7055 56.5956 17.0731V25.3867H52.8006V17.4039C52.8006 15.53 52.0833 14.2316 50.5504 14.2316C49.3242 14.2316 48.5561 15.199 48.2414 16.0261C48.1072 16.3803 48.0633 16.7875 48.0633 17.1726V25.3868H44.2642V11.3803H47.8706V13.2834ZM67.6314 12.3131L68.3761 14.8645C69.3052 14.277 70.787 13.7908 72.1884 13.7908C74.5083 13.7848 74.8887 15.1059 74.8887 15.9531V16.1535C69.8309 16.1459 66.6354 17.8995 66.6354 21.4742C66.6354 23.6567 68.2628 25.702 71.0926 25.702C72.8322 25.702 74.2888 25.0063 75.1599 23.8917H75.2458C75.2458 23.8917 75.8236 26.3124 79.0077 25.3867C78.8402 24.3792 78.7865 23.305 78.7865 22.0112V17.0306C78.7865 13.8562 77.4333 11.0642 72.8604 11.0642L72.8604 11.0641C70.5124 11.0641 68.6485 11.7248 67.6314 12.3131ZM84.7264 14.0217H84.8325C85.5272 12.005 87.1823 11.0641 88.6371 11.0641L88.6373 11.064C89.0024 11.064 89.2031 11.0914 89.4965 11.1508V14.8176L89.4628 14.8128C89.1256 14.7639 88.8086 14.718 88.3712 14.718C86.725 14.718 85.578 15.6784 85.2896 17.1808C85.2285 17.4902 85.2051 17.8275 85.2051 18.2144V25.3867H81.3064V11.3801H84.7264V14.0217ZM31.5435 20.3829C31.5435 20.6413 31.521 20.908 31.4495 21.1412C31.1571 22.1116 30.1536 22.9317 28.8992 22.9317C27.8534 22.9317 27.0226 22.337 27.0226 21.0791C27.0226 19.1549 29.1368 18.623 31.5436 18.6355H31.5435V20.3829ZM74.9172 21.1412C74.9882 20.908 75.0111 20.6413 75.0111 20.3829V18.6355H75.0112C72.6044 18.623 70.4903 19.1549 70.4903 21.0791C70.4903 22.337 71.3212 22.9317 72.3672 22.9317C73.6216 22.9317 74.6247 22.1116 74.9172 21.1412Z" fill="#B3B7BC"/>
<path fill-rule="evenodd" clip-rule="evenodd" d="M117.062 9.91884L116.321 1.51352C116.321 0.682568 117.29 0 118.51 0L118.512 7.13722e-05C119.734 7.13722e-05 120.706 0.682639 120.706 1.51352L119.962 9.91884C119.878 10.4246 119.261 10.8149 118.511 10.8159C117.763 10.8159 117.143 10.4252 117.062 9.91884ZM104.838 10.6895C104.122 10.2745 104.014 9.09144 104.626 8.03283C105.083 7.23784 105.803 6.75741 106.436 6.74235L106.437 6.74246C106.648 6.73744 106.849 6.78421 107.028 6.88813L113.924 11.7339C114.321 12.0587 114.35 12.7908 113.973 13.4419V13.4423C113.598 14.0902 112.95 14.4296 112.473 14.2518L104.838 10.6895ZM129.994 6.88802L123.097 11.7338C122.702 12.0586 122.673 12.7907 123.048 13.4418L123.048 13.4422C123.425 14.0901 124.071 14.4295 124.548 14.2517L132.186 10.6896C132.905 10.2745 133.008 9.09157 132.4 8.03291C131.941 7.23789 131.22 6.75749 130.587 6.74243L130.585 6.74235C130.373 6.73733 130.172 6.7841 129.994 6.88802ZM104.839 21.4378L112.474 17.8797C112.564 17.8459 112.66 17.8306 112.759 17.832L112.759 17.8319C113.187 17.8377 113.673 18.1607 113.978 18.6906L113.974 18.6891C114.351 19.3396 114.322 20.0716 113.925 20.4003L107.029 25.2423C106.313 25.6567 105.237 25.1544 104.627 24.0979C104.015 23.0381 104.123 21.8547 104.839 21.4378ZM123.047 18.6907L123.05 18.6893C122.675 19.3397 122.704 20.0717 123.098 20.4004L129.995 25.2424C130.71 25.6568 131.787 25.1545 132.4 24.098C133.008 23.0382 132.905 21.8547 132.186 21.4379L124.549 17.8798C124.46 17.846 124.364 17.8307 124.265 17.8321L124.265 17.832C123.838 17.8378 123.353 18.1608 123.047 18.6907ZM116.322 30.6154L117.063 22.2104C117.144 21.7053 117.762 21.3164 118.509 21.3155H118.512C119.262 21.3164 119.879 21.7053 119.963 22.2104L120.705 30.6154C120.705 31.4477 119.734 32.1289 118.511 32.1289C117.291 32.1289 116.322 31.4477 116.322 30.6154Z" fill="#B3B7BC"/>
</svg>
